name N:\Shared_Data\HIL\Data Collection\CoPD-X-MoreData\processed\iteration012\grf0012.mot
datacolumns 19
datarows 30
range 2323.557832 2323.606161
endheader
time	ground_force1_vx	ground_force1_vy	ground_force1_vz	ground_force1_px	ground_force1_py	ground_force1_pz	ground_force2_vx	ground_force2_vy	ground_force2_vz	ground_force2_px	ground_force2_py	ground_force2_pz	ground_torque1_x	ground_torque1_y	ground_torque1_z	ground_torque2_x	ground_torque2_y	ground_torque2_z	
2323.557832	-50.80556615	811.9923165	58.2001339	6.091219023	0	0.1579880603	0	0	0	0	0	0	0	11.48142112	0	0	0	0	
2323.559497	-50.74361575	810.115469	58.33983737	6.092515755	0	0.1579959281	0	0	0	0	0	0	0	11.42934642	0	0	0	0	
2323.561159	-50.6812784	808.1660187	58.46991602	6.093823834	0	0.1579969981	0	0	0	0	0	0	0	11.38415497	0	0	0	0	
2323.562828	-50.61827129	806.1449294	58.58988295	6.095142982	0	0.1579911065	0	0	0	0	0	0	0	11.34595825	0	0	0	0	
2323.564496	-50.5542566	804.0531333	58.69923974	6.09647294	0	0.157978098	0	0	0	0	0	0	0	11.31484039	0	0	0	0	
2323.566161	-50.48884301	801.8915211	58.79747713	6.097813471	0	0.1579578269	-2.678786053	3.091435152	2.186198538	6.354345998	0	-0.02215815062	0	11.29085789	0	0	0.6865583474	0	
2323.567823	-50.42158762	799.6609318	58.88407566	6.099164364	0	0.1579301573	-3.577483333	4.908741844	2.993708289	6.355684002	0	-0.02215815062	0	11.27403943	0	0	0.9532653194	0	
2323.569492	-50.35199825	797.3621429	58.95850649	6.10052543	0	0.1578949641	-4.526846652	7.07665396	3.868407445	6.357022005	0	-0.02215815062	0	11.26438592	0	0	1.245555714	0	
2323.571161	-50.27953603	794.9958612	59.02023227	6.10189651	0	0.1578521338	-5.494047075	9.587135088	4.785305371	6.358360009	0	-0.02215815062	0	11.26187056	0	0	1.55585474	0	
2323.572824	-50.20361841	792.5627137	59.06870806	6.103277474	0	0.1578015651	-6.444434827	12.42313576	5.717057937	6.359698012	0	-0.02215815062	0	11.26643911	0	0	1.875688101	0	
2323.574493	-50.12362249	790.0632394	59.10338244	6.104668219	0	0.1577431693	-7.344195656	15.56087708	6.636069403	6.361036016	0	-0.02215815062	0	11.27801022	0	0	2.196332024	0	
2323.576162	-50.0388887	787.4978814	59.1236986	6.106068674	0	0.1576768714	-8.162861204	18.97258069	7.516544669	6.362374019	0	-0.02215815062	0	11.2964759	0	0	2.509460722	0	
2323.577823	-49.94872469	784.8669796	59.12909561	6.107478797	0	0.1576026101	-8.87535308	22.62925399	8.336227609	6.363712023	0	-0.02215815062	0	11.32170212	0	0	2.807707674	0	
2323.579495	-49.85240968	782.1707646	59.11900978	6.108898578	0	0.1575203389	-9.4633578	26.50320287	9.077648787	6.365050026	0	-0.02215815062	0	11.35352946	0	0	3.085083024	0	
2323.581156	-49.74919887	779.4093514	59.0928761	6.110328034	0	0.157430026	-9.915962144	30.57005095	9.728808501	6.36638803	0	-0.02215815062	0	11.39177393	0	0	3.337220609	0	
2323.582827	-49.63832823	776.5827348	59.05012977	6.111767213	0	0.1573316551	-10.22958643	34.81015012	10.28330715	6.367726033	0	-0.02215815062	0	11.43622781	0	0	3.561454795	0	
2323.584501	-49.51901943	773.6907853	58.9902079	6.113216188	0	0.1572252254	-10.40732619	39.20935592	10.73999513	6.369064037	0	-0.02215815062	0	11.48666065	0	0	3.756746347	0	
2323.586164	-49.39048491	770.7332455	58.91255121	6.11467506	0	0.1571107521	-10.45785383	43.75920848	11.10225055	6.37040204	0	-0.02215815062	0	11.54282029	0	0	3.923488432	0	
2323.587824	-49.25193315	767.7097278	58.81660591	6.116143953	0	0.1569882663	-10.3940466	48.45660714	11.37700882	6.371740044	0	-0.02215815062	0	11.60443397	0	0	4.063229505	0	
2323.589495	-49.10257394	764.6197128	58.70182561	6.117623012	0	0.1568578154	-10.23150232	53.30309419	11.57366802	6.373078047	0	-0.02215815062	0	11.6712095	0	0	4.178350641	0	
2323.591163	-48.94162375	761.462549	58.56767332	6.119112402	0	0.1567194626	-9.987084311	58.3038751	11.70298213	6.374416051	0	-0.02215815062	0	11.74283649	0	0	4.271731854	0	
2323.592831	-48.76831112	758.2374525	58.41362355	6.120612302	0	0.1565732875	-9.677608774	63.46670012	11.77603427	6.375754054	0	-0.02215815062	0	11.81898764	0	0	4.3464365	0	
2323.594496	-48.58188197	754.943509	58.23916443	6.122122906	0	0.156419385	-9.318754845	68.80071985	11.80335859	6.377092058	0	-0.02215815062	0	11.89931999	0	0	4.405435923	0	
2323.596156	-48.38160485	751.5796752	58.0437999	6.123644415	0	0.1562578661	-8.924244439	74.31540829	11.79425413	6.378430061	0	-0.02215815062	0	11.98347631	0	0	4.451389049	0	
2323.597828	-48.1667761	748.1447825	57.82705196	6.125177037	0	0.1560888564	-8.505308244	80.01962344	11.75631057	6.379768065	0	-0.02215815062	0	12.07108643	0	0	4.486484443	0	
2323.599491	-47.93672475	744.6375409	57.58846288	6.126720978	0	0.1559124967	-8.070428246	85.92085194	11.69514499	6.381106068	0	-0.02215815062	0	12.16176862	0	0	4.512345942	0	
2323.601157	-47.69081735	741.0565437	57.32759748	6.128276445	0	0.1557289416	-7.625326926	92.02466047	11.614332	6.382444072	0	-0.02215815062	0	12.25513097	0	0	4.529997705	0	
2323.602824	-47.42846245	737.400274	57.04404541	6.129843635	0	0.1555383595	-7.173159436	98.33435686	11.51549798	6.383782075	0	-0.02215815062	0	12.35077274	0	0	4.539880653	0	
2323.604491	-47.14911483	733.6671106	56.73742339	6.131422733	0	0.1553409316	-6.714857323	104.8508468	11.3985426	6.385120079	0	-0.02215815062	0	12.44828578	0	0	4.541909759	0	
2323.606161	-46.85227944	729.8553364	56.40737742	6.133013909	0	0.1551368511	-6.249570271	111.57266	11.26194796	6.386458082	0	-0.02215815062	0	12.54725586	0	0	4.535560472	0	
